<svg width="148" height="40" viewBox="0 0 148 40" fill="none" xmlns="http://www.w3.org/2000/svg">
<path fill-rule="evenodd" clip-rule="evenodd" d="M20 40C31.0457 40 40 31.0457 40 20C40 8.95431 31.0457 0 20 0C8.95429 0 0 8.95431 0 20C0 31.0457 8.95429 40 20 40ZM26.2393 9.31684C26.543 8.23805 25.4961 7.60013 24.54 8.2813L11.1931 17.7896C10.1562 18.5283 10.3193 20 11.4381 20H14.9527V19.9728H21.8025L16.2212 21.9421L13.7607 30.6832C13.457 31.762 14.5038 32.3999 15.46 31.7187L28.8069 22.2105C29.8438 21.4718 29.6806 20 28.5619 20H23.2321L26.2393 9.31684Z" fill="#FF8038"/>
<path d="M51.76 27.5V13.5H55.16V24.5H61.4V27.5H51.76ZM63.7875 27.5V16.88H66.9875V27.5H63.7875ZM65.3875 14.78C64.7875 14.78 64.3142 14.64 63.9675 14.36C63.6342 14.0667 63.4675 13.6533 63.4675 13.12C63.4675 12.64 63.6408 12.2467 63.9875 11.94C64.3342 11.6333 64.8008 11.48 65.3875 11.48C65.9875 11.48 66.4542 11.6267 66.7875 11.92C67.1208 12.2 67.2875 12.6 67.2875 13.12C67.2875 13.6133 67.1142 14.0133 66.7675 14.32C66.4342 14.6267 65.9742 14.78 65.3875 14.78ZM74.8542 32.1C73.9876 32.1 73.1209 31.9733 72.2542 31.72C71.4009 31.4667 70.7076 31.14 70.1742 30.74L71.2942 28.5C71.5742 28.6867 71.8809 28.8467 72.2142 28.98C72.5609 29.1267 72.9209 29.24 73.2942 29.32C73.6676 29.4 74.0476 29.44 74.4342 29.44C75.1142 29.44 75.6676 29.34 76.0942 29.14C76.5209 28.94 76.8409 28.6333 77.0542 28.22C77.2676 27.82 77.3742 27.3133 77.3742 26.7V24.92L77.9942 25.02C77.9009 25.46 77.6676 25.86 77.2942 26.22C76.9342 26.58 76.4876 26.8733 75.9542 27.1C75.4209 27.3133 74.8542 27.42 74.2542 27.42C73.2942 27.42 72.4342 27.2 71.6742 26.76C70.9276 26.3067 70.3342 25.6867 69.8942 24.9C69.4676 24.1 69.2542 23.18 69.2542 22.14C69.2542 21.0733 69.4676 20.1333 69.8942 19.32C70.3209 18.4933 70.9076 17.8467 71.6542 17.38C72.4009 16.9 73.2409 16.66 74.1742 16.66C74.5742 16.66 74.9542 16.7067 75.3142 16.8C75.6876 16.8933 76.0276 17.02 76.3342 17.18C76.6542 17.3267 76.9342 17.5067 77.1742 17.72C77.4276 17.92 77.6276 18.14 77.7742 18.38C77.9342 18.62 78.0409 18.8667 78.0942 19.12L77.4342 19.28L77.5542 16.88H80.5942V26.64C80.5942 27.5067 80.4609 28.2733 80.1942 28.94C79.9409 29.62 79.5609 30.1933 79.0542 30.66C78.5609 31.14 77.9609 31.5 77.2542 31.74C76.5476 31.98 75.7476 32.1 74.8542 32.1ZM74.9342 24.94C75.4542 24.94 75.9009 24.8267 76.2742 24.6C76.6609 24.36 76.9542 24.0333 77.1542 23.62C77.3676 23.2067 77.4742 22.72 77.4742 22.16C77.4742 21.6 77.3676 21.1133 77.1542 20.7C76.9542 20.2733 76.6609 19.9467 76.2742 19.72C75.9009 19.48 75.4542 19.36 74.9342 19.36C74.4276 19.36 73.9876 19.48 73.6142 19.72C73.2409 19.9467 72.9476 20.2733 72.7342 20.7C72.5342 21.1133 72.4342 21.6 72.4342 22.16C72.4342 22.72 72.5342 23.2067 72.7342 23.62C72.9476 24.0333 73.2409 24.36 73.6142 24.6C73.9876 24.8267 74.4276 24.94 74.9342 24.94ZM83.3731 27.5V12.7H86.5131V19.04L85.8731 19.28C86.0198 18.8 86.2798 18.3667 86.6531 17.98C87.0398 17.58 87.4998 17.26 88.0331 17.02C88.5665 16.78 89.1265 16.66 89.7131 16.66C90.5131 16.66 91.1865 16.8267 91.7331 17.16C92.2798 17.48 92.6931 17.9667 92.9731 18.62C93.2531 19.26 93.3931 20.0467 93.3931 20.98V27.5H90.1731V21.24C90.1731 20.8133 90.1131 20.46 89.9931 20.18C89.8731 19.9 89.6865 19.6933 89.4331 19.56C89.1931 19.4133 88.8931 19.3467 88.5331 19.36C88.2531 19.36 87.9931 19.4067 87.7531 19.5C87.5131 19.58 87.3065 19.7067 87.1331 19.88C86.9598 20.04 86.8198 20.2267 86.7131 20.44C86.6198 20.6533 86.5731 20.8867 86.5731 21.14V27.5H84.9931C84.6198 27.5 84.2998 27.5 84.0331 27.5C83.7665 27.5 83.5465 27.5 83.3731 27.5ZM96.9484 27.5V14.2H100.148V27.5H96.9484ZM95.0684 19.68V16.88H102.208V19.68H95.0684ZM104.037 27.5V16.88H107.077L107.177 19.04L106.537 19.28C106.684 18.8 106.944 18.3667 107.317 17.98C107.704 17.58 108.164 17.26 108.697 17.02C109.231 16.78 109.791 16.66 110.377 16.66C111.177 16.66 111.851 16.8267 112.397 17.16C112.944 17.48 113.357 17.9667 113.637 18.62C113.917 19.26 114.057 20.0467 114.057 20.98V27.5H110.837V21.24C110.837 20.8133 110.777 20.46 110.657 20.18C110.537 19.9 110.351 19.6933 110.097 19.56C109.857 19.4133 109.557 19.3467 109.197 19.36C108.917 19.36 108.657 19.4067 108.417 19.5C108.177 19.58 107.971 19.7067 107.797 19.88C107.624 20.04 107.484 20.2267 107.377 20.44C107.284 20.6533 107.237 20.8867 107.237 21.14V27.5H105.657C105.284 27.5 104.964 27.5 104.697 27.5C104.431 27.5 104.211 27.5 104.037 27.5ZM116.913 27.5V16.88H120.113V27.5H116.913ZM118.513 14.78C117.913 14.78 117.439 14.64 117.093 14.36C116.759 14.0667 116.593 13.6533 116.593 13.12C116.593 12.64 116.766 12.2467 117.113 11.94C117.459 11.6333 117.926 11.48 118.513 11.48C119.113 11.48 119.579 11.6267 119.913 11.92C120.246 12.2 120.413 12.6 120.413 13.12C120.413 13.6133 120.239 14.0133 119.893 14.32C119.559 14.6267 119.099 14.78 118.513 14.78ZM123.119 27.5V16.88H126.159L126.259 19.04L125.619 19.28C125.766 18.8 126.026 18.3667 126.399 17.98C126.786 17.58 127.246 17.26 127.779 17.02C128.313 16.78 128.873 16.66 129.459 16.66C130.259 16.66 130.933 16.8267 131.479 17.16C132.026 17.48 132.439 17.9667 132.719 18.62C132.999 19.26 133.139 20.0467 133.139 20.98V27.5H129.919V21.24C129.919 20.8133 129.859 20.46 129.739 20.18C129.619 19.9 129.433 19.6933 129.179 19.56C128.939 19.4133 128.639 19.3467 128.279 19.36C127.999 19.36 127.739 19.4067 127.499 19.5C127.259 19.58 127.053 19.7067 126.879 19.88C126.706 20.04 126.566 20.2267 126.459 20.44C126.366 20.6533 126.319 20.8867 126.319 21.14V27.5H124.739C124.366 27.5 124.046 27.5 123.779 27.5C123.513 27.5 123.293 27.5 123.119 27.5ZM140.675 32.1C139.808 32.1 138.941 31.9733 138.075 31.72C137.221 31.4667 136.528 31.14 135.995 30.74L137.115 28.5C137.395 28.6867 137.701 28.8467 138.035 28.98C138.381 29.1267 138.741 29.24 139.115 29.32C139.488 29.4 139.868 29.44 140.255 29.44C140.935 29.44 141.488 29.34 141.915 29.14C142.341 28.94 142.661 28.6333 142.875 28.22C143.088 27.82 143.195 27.3133 143.195 26.7V24.92L143.815 25.02C143.721 25.46 143.488 25.86 143.115 26.22C142.755 26.58 142.308 26.8733 141.775 27.1C141.241 27.3133 140.675 27.42 140.075 27.42C139.115 27.42 138.255 27.2 137.495 26.76C136.748 26.3067 136.155 25.6867 135.715 24.9C135.288 24.1 135.075 23.18 135.075 22.14C135.075 21.0733 135.288 20.1333 135.715 19.32C136.141 18.4933 136.728 17.8467 137.475 17.38C138.221 16.9 139.061 16.66 139.995 16.66C140.395 16.66 140.775 16.7067 141.135 16.8C141.508 16.8933 141.848 17.02 142.155 17.18C142.475 17.3267 142.755 17.5067 142.995 17.72C143.248 17.92 143.448 18.14 143.595 18.38C143.755 18.62 143.861 18.8667 143.915 19.12L143.255 19.28L143.375 16.88H146.415V26.64C146.415 27.5067 146.281 28.2733 146.015 28.94C145.761 29.62 145.381 30.1933 144.875 30.66C144.381 31.14 143.781 31.5 143.075 31.74C142.368 31.98 141.568 32.1 140.675 32.1ZM140.755 24.94C141.275 24.94 141.721 24.8267 142.095 24.6C142.481 24.36 142.775 24.0333 142.975 23.62C143.188 23.2067 143.295 22.72 143.295 22.16C143.295 21.6 143.188 21.1133 142.975 20.7C142.775 20.2733 142.481 19.9467 142.095 19.72C141.721 19.48 141.275 19.36 140.755 19.36C140.248 19.36 139.808 19.48 139.435 19.72C139.061 19.9467 138.768 20.2733 138.555 20.7C138.355 21.1133 138.255 21.6 138.255 22.16C138.255 22.72 138.355 23.2067 138.555 23.62C138.768 24.0333 139.061 24.36 139.435 24.6C139.808 24.8267 140.248 24.94 140.755 24.94Z" fill="#18181B"/>
</svg>
