<svg width="149" height="40" viewBox="0 0 149 40" fill="none" xmlns="http://www.w3.org/2000/svg">
<path fill-rule="evenodd" clip-rule="evenodd" d="M20.5 40C31.5457 40 40.5 31.0457 40.5 20C40.5 8.95431 31.5457 0 20.5 0C9.45429 0 0.5 8.95431 0.5 20C0.5 31.0457 9.45429 40 20.5 40ZM26.7393 9.31684C27.043 8.23805 25.9961 7.60013 25.04 8.2813L11.6931 17.7896C10.6562 18.5283 10.8193 20 11.9381 20H15.4527V19.9728H22.3025L16.7212 21.9421L14.2607 30.6832C13.957 31.762 15.0038 32.3999 15.96 31.7187L29.3069 22.2105C30.3438 21.4718 30.1806 20 29.0619 20H23.7321L26.7393 9.31684Z" fill="white"/>
<path d="M52.26 27.5V13.5H55.66V24.5H61.9V27.5H52.26ZM64.2875 27.5V16.88H67.4875V27.5H64.2875ZM65.8875 14.78C65.2875 14.78 64.8142 14.64 64.4675 14.36C64.1342 14.0667 63.9675 13.6533 63.9675 13.12C63.9675 12.64 64.1408 12.2467 64.4875 11.94C64.8342 11.6333 65.3008 11.48 65.8875 11.48C66.4875 11.48 66.9542 11.6267 67.2875 11.92C67.6208 12.2 67.7875 12.6 67.7875 13.12C67.7875 13.6133 67.6142 14.0133 67.2675 14.32C66.9342 14.6267 66.4742 14.78 65.8875 14.78ZM75.3542 32.1C74.4876 32.1 73.6209 31.9733 72.7542 31.72C71.9009 31.4667 71.2076 31.14 70.6742 30.74L71.7942 28.5C72.0742 28.6867 72.3809 28.8467 72.7142 28.98C73.0609 29.1267 73.4209 29.24 73.7942 29.32C74.1676 29.4 74.5476 29.44 74.9342 29.44C75.6142 29.44 76.1676 29.34 76.5942 29.14C77.0209 28.94 77.3409 28.6333 77.5542 28.22C77.7676 27.82 77.8742 27.3133 77.8742 26.7V24.92L78.4942 25.02C78.4009 25.46 78.1676 25.86 77.7942 26.22C77.4342 26.58 76.9876 26.8733 76.4542 27.1C75.9209 27.3133 75.3542 27.42 74.7542 27.42C73.7942 27.42 72.9342 27.2 72.1742 26.76C71.4276 26.3067 70.8342 25.6867 70.3942 24.9C69.9676 24.1 69.7542 23.18 69.7542 22.14C69.7542 21.0733 69.9676 20.1333 70.3942 19.32C70.8209 18.4933 71.4076 17.8467 72.1542 17.38C72.9009 16.9 73.7409 16.66 74.6742 16.66C75.0742 16.66 75.4542 16.7067 75.8142 16.8C76.1876 16.8933 76.5276 17.02 76.8342 17.18C77.1542 17.3267 77.4342 17.5067 77.6742 17.72C77.9276 17.92 78.1276 18.14 78.2742 18.38C78.4342 18.62 78.5409 18.8667 78.5942 19.12L77.9342 19.28L78.0542 16.88H81.0942V26.64C81.0942 27.5067 80.9609 28.2733 80.6942 28.94C80.4409 29.62 80.0609 30.1933 79.5542 30.66C79.0609 31.14 78.4609 31.5 77.7542 31.74C77.0476 31.98 76.2476 32.1 75.3542 32.1ZM75.4342 24.94C75.9542 24.94 76.4009 24.8267 76.7742 24.6C77.1609 24.36 77.4542 24.0333 77.6542 23.62C77.8676 23.2067 77.9742 22.72 77.9742 22.16C77.9742 21.6 77.8676 21.1133 77.6542 20.7C77.4542 20.2733 77.1609 19.9467 76.7742 19.72C76.4009 19.48 75.9542 19.36 75.4342 19.36C74.9276 19.36 74.4876 19.48 74.1142 19.72C73.7409 19.9467 73.4476 20.2733 73.2342 20.7C73.0342 21.1133 72.9342 21.6 72.9342 22.16C72.9342 22.72 73.0342 23.2067 73.2342 23.62C73.4476 24.0333 73.7409 24.36 74.1142 24.6C74.4876 24.8267 74.9276 24.94 75.4342 24.94ZM83.8731 27.5V12.7H87.0131V19.04L86.3731 19.28C86.5198 18.8 86.7798 18.3667 87.1531 17.98C87.5398 17.58 87.9998 17.26 88.5331 17.02C89.0665 16.78 89.6265 16.66 90.2131 16.66C91.0131 16.66 91.6865 16.8267 92.2331 17.16C92.7798 17.48 93.1931 17.9667 93.4731 18.62C93.7531 19.26 93.8931 20.0467 93.8931 20.98V27.5H90.6731V21.24C90.6731 20.8133 90.6131 20.46 90.4931 20.18C90.3731 19.9 90.1865 19.6933 89.9331 19.56C89.6931 19.4133 89.3931 19.3467 89.0331 19.36C88.7531 19.36 88.4931 19.4067 88.2531 19.5C88.0131 19.58 87.8065 19.7067 87.6331 19.88C87.4598 20.04 87.3198 20.2267 87.2131 20.44C87.1198 20.6533 87.0731 20.8867 87.0731 21.14V27.5H85.4931C85.1198 27.5 84.7998 27.5 84.5331 27.5C84.2665 27.5 84.0465 27.5 83.8731 27.5ZM97.4484 27.5V14.2H100.648V27.5H97.4484ZM95.5684 19.68V16.88H102.708V19.68H95.5684ZM104.537 27.5V16.88H107.577L107.677 19.04L107.037 19.28C107.184 18.8 107.444 18.3667 107.817 17.98C108.204 17.58 108.664 17.26 109.197 17.02C109.731 16.78 110.291 16.66 110.877 16.66C111.677 16.66 112.351 16.8267 112.897 17.16C113.444 17.48 113.857 17.9667 114.137 18.62C114.417 19.26 114.557 20.0467 114.557 20.98V27.5H111.337V21.24C111.337 20.8133 111.277 20.46 111.157 20.18C111.037 19.9 110.851 19.6933 110.597 19.56C110.357 19.4133 110.057 19.3467 109.697 19.36C109.417 19.36 109.157 19.4067 108.917 19.5C108.677 19.58 108.471 19.7067 108.297 19.88C108.124 20.04 107.984 20.2267 107.877 20.44C107.784 20.6533 107.737 20.8867 107.737 21.14V27.5H106.157C105.784 27.5 105.464 27.5 105.197 27.5C104.931 27.5 104.711 27.5 104.537 27.5ZM117.413 27.5V16.88H120.613V27.5H117.413ZM119.013 14.78C118.413 14.78 117.939 14.64 117.593 14.36C117.259 14.0667 117.093 13.6533 117.093 13.12C117.093 12.64 117.266 12.2467 117.613 11.94C117.959 11.6333 118.426 11.48 119.013 11.48C119.613 11.48 120.079 11.6267 120.413 11.92C120.746 12.2 120.913 12.6 120.913 13.12C120.913 13.6133 120.739 14.0133 120.393 14.32C120.059 14.6267 119.599 14.78 119.013 14.78ZM123.619 27.5V16.88H126.659L126.759 19.04L126.119 19.28C126.266 18.8 126.526 18.3667 126.899 17.98C127.286 17.58 127.746 17.26 128.279 17.02C128.813 16.78 129.373 16.66 129.959 16.66C130.759 16.66 131.433 16.8267 131.979 17.16C132.526 17.48 132.939 17.9667 133.219 18.62C133.499 19.26 133.639 20.0467 133.639 20.98V27.5H130.419V21.24C130.419 20.8133 130.359 20.46 130.239 20.18C130.119 19.9 129.933 19.6933 129.679 19.56C129.439 19.4133 129.139 19.3467 128.779 19.36C128.499 19.36 128.239 19.4067 127.999 19.5C127.759 19.58 127.553 19.7067 127.379 19.88C127.206 20.04 127.066 20.2267 126.959 20.44C126.866 20.6533 126.819 20.8867 126.819 21.14V27.5H125.239C124.866 27.5 124.546 27.5 124.279 27.5C124.013 27.5 123.793 27.5 123.619 27.5ZM141.175 32.1C140.308 32.1 139.441 31.9733 138.575 31.72C137.721 31.4667 137.028 31.14 136.495 30.74L137.615 28.5C137.895 28.6867 138.201 28.8467 138.535 28.98C138.881 29.1267 139.241 29.24 139.615 29.32C139.988 29.4 140.368 29.44 140.755 29.44C141.435 29.44 141.988 29.34 142.415 29.14C142.841 28.94 143.161 28.6333 143.375 28.22C143.588 27.82 143.695 27.3133 143.695 26.7V24.92L144.315 25.02C144.221 25.46 143.988 25.86 143.615 26.22C143.255 26.58 142.808 26.8733 142.275 27.1C141.741 27.3133 141.175 27.42 140.575 27.42C139.615 27.42 138.755 27.2 137.995 26.76C137.248 26.3067 136.655 25.6867 136.215 24.9C135.788 24.1 135.575 23.18 135.575 22.14C135.575 21.0733 135.788 20.1333 136.215 19.32C136.641 18.4933 137.228 17.8467 137.975 17.38C138.721 16.9 139.561 16.66 140.495 16.66C140.895 16.66 141.275 16.7067 141.635 16.8C142.008 16.8933 142.348 17.02 142.655 17.18C142.975 17.3267 143.255 17.5067 143.495 17.72C143.748 17.92 143.948 18.14 144.095 18.38C144.255 18.62 144.361 18.8667 144.415 19.12L143.755 19.28L143.875 16.88H146.915V26.64C146.915 27.5067 146.781 28.2733 146.515 28.94C146.261 29.62 145.881 30.1933 145.375 30.66C144.881 31.14 144.281 31.5 143.575 31.74C142.868 31.98 142.068 32.1 141.175 32.1ZM141.255 24.94C141.775 24.94 142.221 24.8267 142.595 24.6C142.981 24.36 143.275 24.0333 143.475 23.62C143.688 23.2067 143.795 22.72 143.795 22.16C143.795 21.6 143.688 21.1133 143.475 20.7C143.275 20.2733 142.981 19.9467 142.595 19.72C142.221 19.48 141.775 19.36 141.255 19.36C140.748 19.36 140.308 19.48 139.935 19.72C139.561 19.9467 139.268 20.2733 139.055 20.7C138.855 21.1133 138.755 21.6 138.755 22.16C138.755 22.72 138.855 23.2067 139.055 23.62C139.268 24.0333 139.561 24.36 139.935 24.6C140.308 24.8267 140.748 24.94 141.255 24.94Z" fill="white"/>
</svg>
